# xmcd
#
# Track frame offsets:
#	182
#	13507
#	24177
#	34675
#	47397
#	70430
#	81480
#	94347
#	106497
#	122082
#	146302
#	157750
#
# Disc length: 2297 seconds
#
# Revision: 9
# Processed by: cddbd v1.5.2PL0 Copyright (c) Steve Scherf et al.
# Submitted via: EZCDAudioConverter 1.0.1.3
#
DISCID=8f08f70c
DTITLE=Eric Weissberg and Steve Mandell - Super Hits Of The '70's: Have A Nice D
DTITLE=ay Vol. 11
DYEAR=1990
DGENRE=Country
TTITLE0=Clint Holmes - Playground In My Mind [Rhino Compilation]
TTITLE1=Maureen McGovern - The Morning After (Love Theme From "The Poseidon Ad
TTITLE1=venture") [Rhino Compilation]
TTITLE2=Eric Weissberg and Steve Mandell - Dueling Banjos (From "Deliverance") [
TTITLE2=Rhino Compilation]
TTITLE3=Donna Fargo - Funny Face [Rhino Compilation]
TTITLE4=Deodato - Also Sprach Zarathustra [Rhino Compilation]
TTITLE5=Gallery - Big City Miss Ruth Ann [Rhino Compilation]
TTITLE6=Jud Strunk - Daisy A Day [Rhino Compilation]
TTITLE7=Gilbert O'Sullivan - Get Down [Rhino Compilation]
TTITLE8=Albert Hammond - The Free Electric Band [Rhino Compilation]
TTITLE9=The Charlie Daniels Band - Uneasy Rider [Rhino Compilation]
TTITLE10=B.W. Stevenson - My Maria [Rhino Compilation]
TTITLE11=El Chicano - Tell Her She's Lovely [Rhino Compilation]
EXTD=
EXTT0=
EXTT1=
EXTT2=
EXTT3=
EXTT4=
EXTT5=
EXTT6=
EXTT7=
EXTT8=
EXTT9=
EXTT10=
EXTT11=
PLAYORDER=
